<?xml version="1.0" encoding="UTF-8" standalone="no"?>
<svg
   id="svg943"
   version="1.1"
   viewBox="0 0 510 300.00003"
   height="300.00003mm"
   width="510mm"
   xmlns="http://www.w3.org/2000/svg"
   xmlns:svg="http://www.w3.org/2000/svg"
   xmlns:rdf="http://www.w3.org/1999/02/22-rdf-syntax-ns#"
   xmlns:cc="http://creativecommons.org/ns#"
   xmlns:dc="http://purl.org/dc/elements/1.1/">
  <defs
     id="defs937" />
  <metadata
     id="metadata940">
    <rdf:RDF>
      <cc:Work
         rdf:about="">
        <dc:format>image/svg+xml</dc:format>
        <dc:type
           rdf:resource="http://purl.org/dc/dcmitype/StillImage" />
      </cc:Work>
    </rdf:RDF>
  </metadata>
  <g
     id="layer1"
     transform="translate(-47.779995,-314.71527)">
    <g
       id="g2"
       transform="translate(-6.2345049,-20.271677)">
      <path
         id="path7-9"
         style="baseline-shift:baseline;display:inline;overflow:visible;vector-effect:none;fill:#282121;fill-opacity:1;stroke-width:8.46498;stroke-linecap:round;stroke-linejoin:round;stroke-miterlimit:7;stroke-dasharray:25.7647, 51.5293;stroke-dashoffset:208.694;paint-order:fill markers stroke;enable-background:accumulate;stop-color:#000000"
         d="m 166.42144,409.22394 c -0.35299,0.0676 -0.70937,0.15415 -1.06736,0.25057 -0.81686,0.22262 -1.64355,0.52398 -2.47735,0.90193 l -1.57177,0.70176 c -0.10322,0.0507 -0.20146,0.0948 -0.3039,0.14313 l -1.92942,0.92547 c -0.10322,0.0507 -0.20654,0.0957 -0.30728,0.14392 l -1.92341,0.97118 c -0.0957,0.0423 -0.19808,0.10164 -0.29542,0.14981 l -1.92189,1.01367 c -0.10067,0.0592 -0.20062,0.11089 -0.30135,0.16417 l -1.89666,1.02916 c -0.10244,0.0592 -0.21079,0.1219 -0.31576,0.18029 l -1.87311,1.07538 c -0.10243,0.0592 -0.21501,0.12269 -0.31998,0.18108 l -1.87186,1.12212 c -0.10243,0.0592 -0.20231,0.11757 -0.30221,0.1854 l -1.86601,1.16791 c -0.0957,0.0592 -0.1854,0.12367 -0.28019,0.18875 l -1.85028,1.19433 c -0.0991,0.0676 -0.20485,0.14057 -0.30388,0.21163 l -1.83132,1.2413 c -0.0957,0.0592 -0.19385,0.12957 -0.29035,0.19543 l -1.82522,1.28279 c -0.0991,0.0676 -0.20062,0.13959 -0.29965,0.21078 l -1.79679,1.31918 c -0.0932,0.0676 -0.19209,0.14727 -0.2861,0.22009 l -1.78095,1.34543 c -0.0932,0.0676 -0.18796,0.14647 -0.28103,0.21924 l -0.96603,0.78469 c -6.37319,5.04022 -8.88916,13.2415 -5.69972,18.43823 -7.07909,7.36471 -13.32768,15.53035 -18.35578,24.0986 -0.0507,-0.008 -0.10066,-0.0177 -0.15237,-0.0254 -6.59032,-1.02562 -14.435989,3.98463 -17.520123,11.18477 l -0.647577,1.49517 c -0.05073,0.11088 -0.07609,0.21586 -0.132122,0.3259 l -0.821951,2.01567 c -0.04227,0.1101 -0.06763,0.21501 -0.115214,0.32252 l -0.760136,2.0012 c -0.05073,0.11089 -0.07609,0.22009 -0.132123,0.33013 l -0.711908,2.0073 c -0.04227,0.1101 -0.06763,0.21501 -0.106563,0.31998 l -0.664485,2.00899 c -0.04227,0.1101 -0.06763,0.21079 -0.106563,0.31574 l -0.612875,1.99326 c -0.04227,0.1101 -0.05918,0.2167 -0.09732,0.32675 l -0.555308,1.99282 c -0.04227,0.1101 -0.05918,0.21669 -0.09732,0.32675 l -0.516359,1.97063 c -0.03382,0.11167 -0.05918,0.22433 -0.08474,0.33607 l -0.463018,1.97572 c -0.02536,0.10577 -0.05073,0.21248 -0.08808,0.31914 l -0.429181,1.97605 c -0.02536,0.1101 -0.03382,0.21333 -0.05918,0.32337 l -0.374996,1.97664 c -0.0177,0.10322 -0.02536,0.20401 -0.04227,0.30813 l -0.330994,1.95795 c -0.0177,0.10755 -0.03382,0.21332 -0.05918,0.32337 l -0.270045,1.94829 c -0.0177,0.10322 -0.02536,0.204 -0.04227,0.30813 l -0.108333,0.90439 c -0.864517,7.1629 4.295728,11.9258 11.524142,10.63929 0.269179,-0.0507 0.540915,-0.10243 0.805868,-0.16515 0.407161,8.29314 2.242188,16.08675 5.352054,23.05326 -0.30982,0.23448 -0.61625,0.48081 -0.9188,0.73898 -6.2672,5.34801 -8.367179,13.66983 -4.694491,18.59619 l 0.80925,1.06895 c 0.05072,0.0761 0.107546,0.14805 0.160827,0.22433 l 1.04882,1.30945 c 0.05918,0.0761 0.124455,0.14471 0.188747,0.21331 l 1.098326,1.28931 c 0.06763,0.0592 0.117573,0.13212 0.180292,0.19386 l 1.140399,1.254 c 0.0592,0.0761 0.12524,0.14058 0.18875,0.20908 l 1.18688,1.21328 c 0.0592,0.0676 0.12603,0.13547 0.19386,0.19978 l 1.24681,1.17367 c 0.0592,0.0676 0.13035,0.13467 0.19808,0.19893 l 1.27618,1.12838 c 0.0592,0.0676 0.14137,0.11935 0.20739,0.18364 l 1.32138,1.10932 c 0.0761,0.0592 0.14549,0.11265 0.21755,0.16849 l 1.3726,1.06762 c 0.0761,0.0592 0.1447,0.10833 0.21924,0.16417 l 1.41035,1.02884 c 0.0863,0.0507 0.15316,0.10499 0.23194,0.15237 l 1.45683,0.98805 c 0.0863,0.0507 0.15414,0.10067 0.23194,0.14805 l 1.50336,0.94731 c 0.0863,0.0507 0.16004,0.0855 0.23704,0.1337 l 1.55002,0.90659 c 0.0863,0.0507 0.1565,0.0863 0.23278,0.13468 l 0.20316,0.116 c 5.49214,2.96825 13.81711,-0.0177 18.59212,-6.66625 0.0592,-0.0761 0.11423,-0.15414 0.1685,-0.23194 7.46779,2.52104 15.7533,3.50502 24.40053,3.08506 -0.006,0.0847 -0.0254,0.16594 -0.0177,0.24887 -0.52061,7.0989 4.94387,11.53902 12.20944,9.91105 l 1.73193,-0.39533 c 0.10066,-0.0177 0.19641,-0.0423 0.29883,-0.0592 l 1.97122,-0.48928 c 0.10577,-0.0254 0.21247,-0.0507 0.31744,-0.0761 l 1.96566,-0.53921 c 0.10578,-0.0254 0.20823,-0.0507 0.3132,-0.0761 l 1.97242,-0.57561 c 0.10322,-0.0338 0.20994,-0.0676 0.31404,-0.0981 l 1.96635,-0.61708 c 0.10322,-0.0338 0.20569,-0.0592 0.31064,-0.0932 l 1.96499,-0.66366 c 0.10322,-0.0338 0.19808,-0.0676 0.29627,-0.11167 l 1.96878,-0.72038 c 0.10421,-0.0338 0.2057,-0.0676 0.30982,-0.0973 l 1.95296,-0.74661 c 0.10833,-0.0423 0.21076,-0.0932 0.31742,-0.14214 l 1.94704,-0.79233 c 0.10322,-0.0338 0.20823,-0.0847 0.31151,-0.12366 l 1.94084,-0.83381 c 0.10322,-0.0507 0.20147,-0.0991 0.3039,-0.14726 l 1.92528,-0.86444 c 0.10833,-0.0423 0.2167,-0.0897 0.32167,-0.13881 l 1.92917,-0.92539 c 0.10322,-0.0507 0.20738,-0.0999 0.30812,-0.14824 l 1.91063,-0.97254 c 0.10754,-0.0592 0.21245,-0.10577 0.31912,-0.15925 l 1.0196,-0.5316 c 6.71933,-3.53081 10.96553,-11.00776 9.88285,-17.11083 9.79381,-6.4625 18.84033,-14.51573 26.39667,-23.94029 8.45524,-8.9452 13.12215,-21.99691 7.67993,-30.02609 -6.28203,-10.60281 -26.09387,-8.19437 -35.48439,5.6324 -11.81068,17.0802 -33.8902,26.26478 -49.52137,21.78215 -18.47969,-4.01145 -25.59384,-26.07973 -15.3965,-46.4335 9.14336,-20.79123 34.33368,-35.97943 52.96091,-32.15096 6.20584,0.64586 10.81631,3.82785 14.9875,7.43528 l 3.31844,-50.77983 c -8.68253,-1.33298 -18.07525,-1.01402 -27.61899,0.94511 -2.40906,0.49435 -4.82623,1.0974 -7.24578,1.80109 -1.02239,0.2514 -2.04446,0.52483 -3.06575,0.81941 -1.47993,-4.57938 -6.02901,-6.81751 -11.31292,-5.79765 z m 60.62587,-8.96305 c -2.47042,0.57055 -4.63982,1.91393 -6.50778,4.03102 -1.83631,2.08102 -2.83332,4.32569 -2.99069,6.73354 l -5.44619,83.26958 c -0.15316,2.40728 0.57054,4.26856 2.18541,5.58172 1.646,1.27728 3.70444,1.63079 6.17469,1.0605 2.4705,-0.57055 4.62374,-1.896 6.46012,-3.9771 1.86806,-2.11709 2.88072,-4.37953 3.03825,-6.78748 l 1.80032,-27.53325 37.87474,44.28763 c 1.33308,1.5784 3.20985,2.24493 5.62946,2.00072 2.41786,-0.21502 4.67031,-1.26374 6.75759,-3.14568 2.05928,-1.90404 3.33038,-4.08343 3.81338,-6.53784 0.51298,-2.46127 0.0881,-4.47771 -1.27542,-6.0488 l -37.62095,-44.13198 33.82934,-47.42457 c 1.61366,-2.25837 2.31896,-4.53561 2.11785,-6.83216 -0.17105,-2.30332 -1.19256,-3.95357 -3.06204,-4.95066 -1.90132,-0.96111 -4.08376,-0.98565 -6.54715,-0.0761 -2.46161,0.88255 -4.48407,2.44941 -6.06779,4.70092 l -34.11695,47.79094 2.30915,-35.37045 c 0.15415,-2.40718 -0.58576,-4.25068 -2.23289,-5.52789 -1.61435,-1.31308 -3.6567,-1.6846 -6.12702,-1.11433 z m -62.46143,17.3973 a 2.913426,3.935201 45.035473 0 1 3.3094,2.04336 2.913426,3.935201 45.035473 0 1 -3.13577,4.51267 2.913426,3.935201 45.035473 0 1 -3.76252,-1.90445 2.913426,3.935201 45.035473 0 1 3.13543,-4.50837 2.913426,3.935201 45.035473 0 1 0.45287,-0.14313 z m -9.5947,3.62918 a 2.913426,3.9352012 45.035473 0 1 3.14703,2.23942 2.913426,3.9352012 45.035473 0 1 -3.31354,4.40803 c -3.66203,1.21338 -9.01417,5.84168 -10.47819,8.73636 a 2.913426,3.9352012 45.035473 0 1 -4.7231,2.62888 2.913426,3.9352012 45.035473 0 1 -1.29032,-4.13809 c 3.15836,-6.24461 9.68739,-11.59321 16.20602,-13.75313 a 2.913426,3.9352012 45.035473 0 1 0.45202,-0.1219 z m 132.03781,-10.7296 c -0.70343,9.96209 -6.50905,16.53673 -17.41041,19.7272 10.8118,-1.82168 15.92091,2.23745 15.32406,12.17508 0.70343,-9.96201 6.50947,-16.54098 17.41067,-19.73152 -10.81173,1.82175 -15.92109,-2.23305 -15.32432,-12.17076 z m 254.44467,-58.15275 c -2.35351,0.54345 -4.38629,2.93125 -4.54358,5.33056 -0.39192,5.99828 7.35726,2.88208 7.02078,10.04149 0.48504,-7.1992 7.5223,-7.37647 7.96639,-13.49257 l 4.9e-4,-0.008 c 0.15414,-2.39837 -1.62155,-3.90304 -3.97531,-3.35974 -1.24274,0.28695 -2.45874,1.11169 -3.33131,2.26047 -0.74746,-0.77368 -1.89488,-1.05405 -3.13787,-0.76692 z m -22.82393,21.21254 c -0.32759,0.0676 -0.66789,0.22941 -0.99845,0.47912 l -25.76322,21.04239 c -1.52318,1.1669 -3.29347,0.55953 -3.1868,-1.09452 l 0.75083,-11.48839 c 0.10165,-1.59489 -1.60011,-2.18559 -3.07023,-1.06135 l -24.97623,20.4407 c -2.40075,1.83835 -3.9843,4.57599 -4.15462,7.18228 l -2.02075,30.85356 c -0.3039,4.66673 3.32961,7.55404 8.11765,6.44954 l 75.46995,-17.42142 c 4.77119,-1.10163 8.88543,-5.76422 9.18975,-10.41471 l 2.29173,-35.09635 0.87043,-13.36841 c 0.15493,-2.3276 -1.47391,-3.63825 -3.86119,-3.08606 l -6.42009,1.48195 c -2.38739,0.55023 -4.44624,2.88343 -4.59733,5.21003 l -0.13212,2.00645 c -0.0863,1.33544 -0.90032,2.739 -2.13148,3.68083 l -11.26196,8.61725 c -1.50482,1.15021 -3.25157,0.55021 -3.14803,-1.08199 l 0.77708,-11.90175 c 0.0676,-1.07379 -0.77455,-1.63968 -1.75776,-1.42863 z m -86.72726,20.05402 c -2.05369,0.47405 -3.8563,1.59023 -5.40777,3.3485 -1.54951,1.72921 -2.38975,3.59465 -2.52044,5.59645 -0.13212,2.00204 0.48673,3.54505 1.8518,4.63 1.36531,1.08486 3.07507,1.3902 5.12875,0.91625 2.02389,-0.46727 3.81144,-1.57991 5.36299,-3.33818 1.55128,-1.75817 2.39262,-3.63824 2.52358,-5.63995 0.13212,-2.00205 -0.4876,-3.53066 -1.85477,-4.58648 -1.36556,-1.0848 -3.06017,-1.39377 -5.08414,-0.92659 z m 17.42988,-4.02348 c -2.05378,0.47403 -3.85638,1.59023 -5.40776,3.3485 -1.54951,1.72921 -2.38959,3.59463 -2.52063,5.59645 -0.13212,2.00204 0.48675,3.54502 1.85172,4.62998 1.36558,1.08488 3.07525,1.39029 5.12877,0.91617 2.02413,-0.46727 3.81185,-1.57991 5.36315,-3.33816 1.55145,-1.75817 2.39253,-3.63816 2.52348,-5.63995 0.13212,-2.00205 -0.48758,-3.53066 -1.85459,-4.5865 -1.36556,-1.08478 -3.06017,-1.39375 -5.08414,-0.92657 z m -181.05778,46.62972 c -0.46389,6.60565 -4.31704,10.96883 -11.54528,13.08438 7.16906,-1.20793 10.55768,1.47985 10.16194,8.06916 0.46389,-6.60557 4.31231,-10.9634 11.54072,-13.07898 -7.16923,1.20796 -10.5532,-1.48517 -10.15738,-8.07456 z m 28.25176,5.78775 c -6.16115,1.4223 -11.56799,4.75623 -16.22015,10.00188 -4.62263,5.23879 -7.13141,10.87529 -7.52587,16.90962 -0.39194,6.00522 1.44413,10.63887 5.51087,13.90032 4.09823,3.22558 9.22808,4.12735 15.38915,2.70517 3.5419,-0.81772 6.81691,-2.25947 9.82486,-4.32528 1.36742,1.05584 3.06321,1.35017 5.08702,0.883 2.0536,-0.47405 3.8414,-1.58677 5.36307,-3.33808 1.5513,-1.75827 2.39254,-3.63816 2.5234,-5.64005 l 1.89285,-28.98219 c 0.13547,-2.03135 -0.48588,-3.57409 -1.85178,-4.63001 -1.33577,-1.09182 -3.03048,-1.40061 -5.08398,-0.92657 -2.02406,0.46727 -3.80992,1.55095 -5.35748,3.25114 -2.82774,-0.68989 -6.01259,-0.6264 -9.55459,0.1913 z m 52.40122,-12.09618 c -3.006,0.69413 -5.34547,2.61966 -7.01762,5.77734 l -4.72389,11.71975 -3.1708,-9.34017 c -0.59001,-1.72093 -1.79653,-2.78548 -3.61658,-3.194 -1.79043,-0.41479 -3.67583,-0.0507 -5.65596,1.09131 -1.97835,1.1139 -3.45879,2.68425 -4.44157,4.71127 -0.98101,1.99789 -1.17129,3.8563 -0.58407,5.57798 l 9.09527,27.00232 c 0.79739,2.58742 2.96815,3.47234 6.50998,2.65472 3.51219,-0.81096 5.85141,-2.73665 7.01772,-5.77743 l 4.72395,-11.71967 3.31234,9.86457 -0.004,10e-4 c 0.82789,2.58038 2.99813,3.46531 6.51025,2.6546 3.5122,-0.81094 5.86614,-2.74003 7.06232,-5.78767 l 12.95995,-32.09358 c 0.80756,-2.04378 0.83972,-3.86544 0.094,-5.46481 -0.74321,-1.62841 -2.06096,-2.55295 -3.95196,-2.77363 -1.88903,-0.24971 -3.79433,0.26157 -5.72452,1.53571 -1.90038,1.26737 -3.25461,2.92279 -4.06243,4.96666 l -4.51274,11.11374 -3.30804,-9.86559 c -1.30427,-2.47067 -3.47419,-3.3555 -6.51023,-2.6547 z m 49.72705,-11.47893 c -6.16116,1.42221 -11.56797,4.75621 -16.22033,10.00179 -4.62263,5.23889 -7.13123,10.87536 -7.52579,16.9097 -0.39192,6.00522 1.44405,10.63886 5.51071,13.90034 4.09841,3.22558 9.22826,4.12735 15.38941,2.70507 3.5419,-0.81772 6.81683,-2.25939 9.82477,-4.32518 1.36743,1.05584 3.06306,1.35017 5.08695,0.88298 2.0536,-0.47405 3.84148,-1.58685 5.36323,-3.33816 1.5512,-1.75819 2.39246,-3.63808 2.52324,-5.63995 l 1.89285,-28.98229 c 0.13468,-2.03127 -0.48504,-3.57399 -1.85205,-4.63001 -1.3356,-1.09172 -3.03038,-1.40052 -5.08406,-0.92649 -2.02397,0.46727 -3.80967,1.55087 -5.35723,3.25106 -2.82781,-0.68989 -6.01257,-0.6264 -9.5545,0.1913 z m 32.1095,-7.4121 c -2.0537,0.47405 -3.85631,1.59015 -5.40776,3.3484 -1.54953,1.72923 -2.39069,3.6093 -2.5235,5.64005 l -1.89285,28.98219 c -0.13114,2.00223 0.48673,3.54513 1.85205,4.63001 1.36549,1.08478 3.07507,1.39029 5.12875,0.91632 2.0537,-0.47403 3.84124,-1.58684 5.36299,-3.33815 1.55128,-1.75817 2.39262,-3.63817 2.5235,-5.64004 l 1.89275,-28.98221 c 0.13547,-2.03132 -0.48504,-3.57407 -1.85195,-4.62999 -1.3357,-1.09174 -3.03013,-1.40071 -5.08398,-0.92658 z m 17.4298,-4.02348 c -2.0536,0.47402 -3.85623,1.59014 -5.40768,3.3484 -1.54959,1.7293 -2.39077,3.6093 -2.5235,5.64005 l -1.89276,28.98219 c -0.13212,2.00223 0.48673,3.54513 1.85188,4.63001 1.36548,1.08478 3.07507,1.39027 5.12875,0.91624 2.05378,-0.47405 3.8415,-1.58684 5.36317,-3.33815 1.55135,-1.75819 2.39253,-3.63809 2.52332,-5.63996 l 1.89285,-28.98229 c 0.13448,-2.03116 -0.48506,-3.57399 -1.8518,-4.63 -1.33562,-1.09173 -3.03038,-1.40062 -5.08416,-0.92649 z m -152.61531,49.50188 c 2.05377,-0.47405 3.76344,-0.1685 5.12902,0.91617 1.36531,1.08486 1.98249,2.62829 1.85178,4.62998 -0.13212,2.00207 -0.97159,3.88171 -2.52358,5.63996 -1.55128,1.75827 -3.35398,2.87447 -5.40776,3.3485 -2.05375,0.47404 -3.76334,0.16849 -5.12882,-0.91625 -1.3655,-1.08488 -1.98259,-2.62829 -1.8518,-4.63001 0.13212,-2.00204 0.97161,-3.88168 2.52358,-5.64003 1.55127,-1.75817 3.3538,-2.87429 5.40758,-3.3484 z m 102.12826,-23.5752 c 2.05378,-0.47405 3.76311,-0.1685 5.12867,0.91632 1.36541,1.08488 1.98276,2.62822 1.8519,4.63001 -0.13212,2.00205 -0.97161,3.88171 -2.52342,5.63996 -1.55146,1.75827 -3.35398,2.87437 -5.40776,3.34849 -2.05368,0.47403 -3.76334,0.1685 -5.12875,-0.91634 -1.36532,-1.08486 -1.98284,-2.62819 -1.8518,-4.62999 0.13213,-2.00206 0.97152,-3.8817 2.52348,-5.63995 1.55138,-1.75827 3.35393,-2.87437 5.40768,-3.3485 z m 82.28732,-18.99505 a 6.2856829,8.4901511 45.035473 0 1 6.98064,5.54615 6.2856829,8.4901511 45.035473 0 1 -7.93118,8.98845 6.2856829,8.4901511 45.035473 0 1 -6.98072,-5.54617 6.2856829,8.4901511 45.035473 0 1 7.93126,-8.98843 z m 22.85889,-5.27674 a 6.2856829,8.4901511 45.035473 0 1 6.98064,5.54617 6.2856829,8.4901511 45.035473 0 1 -7.93118,8.98845 6.2856829,8.4901511 45.035473 0 1 -6.98062,-5.54617 6.2856829,8.4901511 45.035473 0 1 7.93116,-8.98845 z m 22.85888,-5.27672 a 6.2856829,8.4901511 45.035473 0 1 6.98065,5.54625 6.2856829,8.4901511 45.035473 0 1 -7.93126,8.98846 6.2856829,8.4901511 45.035473 0 1 -6.98062,-5.54626 6.2856829,8.4901511 45.035473 0 1 7.93123,-8.98845 z m -182.39929,73.32833 c -2.0536,0.47403 -3.85631,1.59013 -5.40784,3.3484 -1.54943,1.72921 -2.38967,3.59473 -2.52053,5.59645 -0.13114,2.00205 0.48673,3.54513 1.8518,4.63 1.36556,1.08494 3.07515,1.39028 5.12892,0.91625 2.02389,-0.46727 3.81152,-1.57998 5.36297,-3.33818 1.5513,-1.75825 2.39246,-3.63824 2.5235,-5.63995 0.13114,-2.00205 -0.48757,-3.53074 -1.85477,-4.58648 -1.36548,-1.08488 -3.06008,-1.39377 -5.08405,-0.92658 z m 21.12653,-4.87685 c -2.05376,0.47405 -3.85638,1.59015 -5.40776,3.3484 -1.54951,1.72923 -2.39059,3.60922 -2.52332,5.64006 l -0.0948,1.43624 -0.71444,0.16515 c -2.05352,0.47403 -3.85605,1.59023 -5.40761,3.34848 -1.55161,1.75819 -2.39261,3.63816 -2.52347,5.63995 -0.13213,2.00197 0.48673,3.54505 1.85179,4.63001 1.36556,1.08488 3.07515,1.39029 5.12875,0.91625 l 0.7136,-0.16516 -1.9929,30.41836 c -0.13114,2.00204 0.48672,3.54505 1.85171,4.63 1.36549,1.08488 3.07515,1.3903 5.12875,0.91625 2.05368,-0.47403 3.85638,-1.59023 5.40794,-3.34848 1.55137,-1.75819 2.39253,-3.63826 2.52324,-5.63996 l 1.99299,-30.41837 0.71359,-0.16515 c 2.08349,-0.48081 3.88609,-1.59699 5.40794,-3.3484 1.55128,-1.75835 2.39694,-3.63934 2.52788,-5.64106 0.13213,-2.00212 -0.49095,-3.5441 -1.85636,-4.62898 -1.33577,-1.09182 -3.04544,-1.39714 -5.12884,-0.91617 l -0.7136,0.16515 0.0948,-1.43634 c 0.13468,-2.03126 -0.48503,-3.57408 -1.85179,-4.63 -1.36548,-1.08486 -3.07515,-1.39027 -5.12883,-0.91625 z m 63.30393,-14.61299 c -2.05367,0.47405 -3.8563,1.59023 -5.40793,3.3485 -1.54951,1.72921 -2.39051,3.6092 -2.52322,5.63995 l -3.03809,46.38897 c -0.13212,2.00205 0.48673,3.54512 1.85187,4.63 1.36549,1.08496 3.07507,1.39028 5.12877,0.91633 2.05368,-0.47403 3.84148,-1.58675 5.36315,-3.33816 1.55153,-1.75827 2.39261,-3.63824 2.5235,-5.64003 l 3.02961,-46.38899 c 0.13547,-2.03124 -0.48421,-3.57407 -1.85189,-4.63 -1.3356,-1.09172 -3.03036,-1.4006 -5.08406,-0.92657 z m 17.4298,-4.02348 c -2.05368,0.47403 -3.8563,1.59022 -5.40776,3.34847 -1.54943,1.72916 -2.38966,3.59466 -2.52053,5.59645 -0.13114,2.00207 0.48673,3.54505 1.85172,4.63001 1.36541,1.08487 3.07523,1.39021 5.12883,0.91624 2.02407,-0.46726 3.81161,-1.57998 5.36307,-3.33815 1.55147,-1.75825 2.39254,-3.63825 2.5235,-5.63996 0.13212,-2.00205 -0.48758,-3.53074 -1.85477,-4.5865 -1.3654,-1.08495 -3.06017,-1.39375 -5.08406,-0.92656 z m -370.110547,93.0049 -0.0039,0.006 c -0.113444,0.84565 -0.735599,39.58357 37.873967,63.39486 1.29303,0.79739 -6.86914,12.51197 -5.81307,13.57838 1.05643,1.06617 11.89761,-5.75066 13.59713,-5.72746 1.6995,0.0254 8.32833,7.06951 10.02184,6.04 1.69663,-1.03077 1.41052,-11.93638 2.45213,-13.62556 1.04085,-1.68892 12.02044,-8.14592 12.01105,-9.84874 -0.008,-1.70196 -11.02725,-1.62611 -12.08333,-2.69245 -1.0566,-1.066 -0.89814,-12.10322 -2.5973,-12.12557 -1.69961,-0.0254 -8.43637,12.47383 -9.91961,11.95898 -42.176634,-14.64067 -45.490587,-48.98544 -45.532485,-50.90767 -6.68e-4,-0.0254 -1.57e-4,-0.0423 -0.0011,-0.0507 z M 264.53663,512.0945 c -6.16098,1.4222 -11.56789,4.75623 -16.22033,10.00178 -4.62246,5.23873 -7.13097,10.87529 -7.52561,16.90972 -0.39192,6.00522 1.44413,10.63877 5.5107,13.90024 4.09839,3.22566 9.22817,4.12735 15.38932,2.70515 3.54192,-0.8177 6.817,-2.25937 9.82479,-4.32526 1.36743,1.05592 3.06304,1.35025 5.08693,0.88298 2.05378,-0.47403 3.84158,-1.58675 5.36315,-3.33808 1.55147,-1.75834 2.39263,-3.63824 2.5235,-5.64003 l 1.89285,-28.98229 c 0.13546,-2.03134 -0.48504,-3.57407 -1.8518,-4.62991 -1.33593,-1.09182 -3.03071,-1.40061 -5.08424,-0.92649 -2.02404,0.46727 -3.80964,1.55087 -5.3573,3.25106 -2.82772,-0.68991 -6.01258,-0.62642 -9.55458,0.1913 z m 31.47565,-7.26581 c -2.05378,0.47403 -3.85639,1.59022 -5.40776,3.34847 -1.54943,1.72916 -2.39069,3.60913 -2.52342,5.63996 l -4.39915,67.26842 c -0.13212,2.00204 0.48673,3.54505 1.8518,4.63 1.36538,1.08496 3.07505,1.3903 5.12892,0.91625 2.05368,-0.47403 3.84148,-1.58685 5.36305,-3.33808 1.55148,-1.75825 2.39264,-3.63824 2.5235,-5.64003 l 2.10635,-32.19373 c 2.27038,0.24718 4.73004,0.0676 7.37908,-0.54599 6.19102,-1.42915 11.59785,-4.76315 16.2204,-10.00186 4.6245,-5.26776 7.13302,-10.90443 7.52571,-16.90965 0.39362,-6.03434 -1.44227,-10.6678 -5.51088,-13.90032 -4.06843,-3.23259 -9.19837,-4.13421 -15.38923,-2.70515 -3.51212,0.81094 -6.77214,2.24905 -9.78017,4.31494 -1.36735,-1.05576 -3.06305,-1.35016 -5.08695,-0.88298 z m 46.18191,-10.66053 c -2.0536,0.47403 -3.8563,1.59013 -5.40768,3.3484 -1.54943,1.72913 -2.39059,3.60912 -2.5234,5.63995 l -1.89285,28.98227 c -0.13114,2.00207 0.48673,3.54497 1.8518,4.63001 1.36548,1.0848 3.07515,1.39029 5.12883,0.91624 2.05377,-0.47402 3.84132,-1.58684 5.36306,-3.33807 1.55138,-1.75833 2.39256,-3.63824 2.5235,-5.64004 l 1.89285,-28.98229 c 0.13468,-2.03124 -0.48504,-3.57407 -1.8517,-4.62998 -1.33595,-1.09174 -3.03055,-1.40054 -5.08433,-0.92649 z m 52.32089,-12.07774 c -6.16105,1.42218 -11.56789,4.75621 -16.22015,10.00178 -4.62255,5.2388 -7.13115,10.87537 -7.52587,16.90971 -0.39194,6.00522 1.44421,10.63886 5.51079,13.90024 4.09839,3.22567 9.22808,4.12735 15.38939,2.70515 3.54192,-0.81771 6.81226,-2.25828 9.82039,-4.32416 1.36717,1.05592 3.06736,1.34916 5.09125,0.88197 2.05378,-0.47404 3.84158,-1.58684 5.36315,-3.33817 1.55138,-1.75825 2.38813,-3.63714 2.5191,-5.63893 l 1.89277,-28.98229 c 0.13546,-2.03133 -0.48081,-3.5751 -1.84749,-4.63101 -1.3356,-1.09172 -3.03046,-1.40054 -5.08398,-0.92649 -2.02397,0.46726 -3.81431,1.55189 -5.36197,3.25208 -2.82764,-0.68991 -6.00809,-0.62727 -9.55,0.19051 z m 49.53938,-11.43559 c -2.0536,0.47403 -3.85621,1.59015 -5.40751,3.3484 -1.54968,1.72915 -2.39084,3.6092 -2.52349,5.63996 l -1.89285,28.98229 c -0.13213,2.00204 0.48672,3.54495 1.85179,4.63 1.36523,1.08486 3.075,1.39028 5.12867,0.91625 2.05378,-0.47405 3.8414,-1.58685 5.36307,-3.33818 1.55146,-1.75825 2.39264,-3.63814 2.52366,-5.63995 l 1.89277,-28.98227 c 0.13546,-2.03135 -0.48504,-3.57409 -1.8518,-4.63001 -1.33559,-1.09172 -3.03028,-1.40062 -5.08421,-0.92657 z m 24.45725,-5.64572 c -4.61349,1.06499 -8.47148,3.3557 -11.57431,6.87212 -3.07118,3.48054 -4.73777,7.22265 -4.9995,11.22616 -0.26411,4.03262 0.87154,6.61351 3.40705,7.74267 2.53527,1.12913 5.59731,1.82242 9.18602,2.07975 3.62089,0.22093 5.30509,0.6899 5.05308,1.40519 -0.24972,0.68651 -1.38513,1.23393 -3.40546,1.64329 -1.99045,0.40209 -3.4305,0.23448 -4.32034,-0.50281 -0.86021,-0.74407 -2.22774,-0.90016 -4.10289,-0.46726 -2.0536,0.47403 -3.85631,1.59014 -5.40776,3.3484 -1.54951,1.7293 -2.38975,3.59473 -2.52053,5.59652 -0.13213,2.00207 0.90541,3.63402 3.10959,4.89683 2.2059,1.23377 6.3148,1.15674 12.32722,-0.2311 5.35756,-1.23674 9.57201,-3.59542 12.64309,-7.07596 3.10293,-3.51642 4.78525,-7.27641 5.047,-11.27999 0.27934,-4.26457 -1.10222,-6.9031 -4.14328,-7.91551 -3.0114,-1.01919 -6.0781,-1.64001 -9.20022,-1.86222 -3.12053,-0.25141 -4.55466,-0.73475 -4.30249,-1.44987 0.25141,-0.71528 1.25324,-1.23215 3.00354,-1.55053 1.75234,-0.34705 2.94309,-0.1795 3.57281,0.50366 0.65942,0.67636 1.92645,0.79826 3.80153,0.3657 2.05386,-0.47405 3.85638,-1.59023 5.40776,-3.3485 1.55138,-1.75817 2.39254,-3.63816 2.5235,-5.63996 0.13114,-2.00212 -1.22294,-3.48934 -4.06133,-4.4628 -2.83847,-0.97348 -6.51997,-0.93794 -11.04408,0.10676 z m 36.06958,-8.32622 c -5.77412,1.3329 -9.8782,4.02322 -13.74101,8.40088 -3.86265,4.37767 -5.95817,9.07598 -6.28635,14.09479 l -1.18128,18.10309 c -0.13212,2.00204 0.48673,3.54512 1.8518,4.63 1.36538,1.08496 3.07489,1.3903 5.12883,0.91625 2.05369,-0.47403 3.84132,-1.58667 5.36299,-3.33808 1.55153,-1.75825 2.39271,-3.63824 2.52357,-5.64003 l 1.13677,-17.40688 c 0.0847,-1.27574 0.52397,-2.40649 1.32105,-3.3908 0.79654,-0.98439 1.30012,-1.50024 2.93709,-1.87813 1.60731,-0.37077 2.04225,-0.0676 2.73283,0.5697 0.69073,0.64079 0.99479,1.59904 0.91176,2.87555 l -1.13677,17.40685 c -0.13114,2.00205 0.48673,3.54513 1.85196,4.63001 1.3655,1.08496 3.06001,1.39375 5.08408,0.92657 2.0833,-0.48081 3.88591,-1.59709 5.40758,-3.34848 1.55155,-1.75817 2.39279,-3.63824 2.52358,-5.63996 l 1.13684,-17.40687 c 0.0763,-1.27557 0.52483,-2.40649 1.32105,-3.39088 0.79655,-0.98432 1.30005,-1.50016 2.93716,-1.87805 1.60708,-0.37077 2.04202,-0.0676 2.73293,0.5697 0.69074,0.64079 0.99464,1.59903 0.91082,2.87555 l -1.13684,17.40685 c -0.13212,2.00205 0.47151,3.54843 1.80728,4.64025 1.36539,1.08496 3.07507,1.39037 5.12858,0.91632 2.08358,-0.48081 3.88611,-1.59708 5.40785,-3.34847 1.55146,-1.75827 2.39254,-3.63824 2.5235,-5.63996 l 1.18128,-18.10311 c 0.32844,-5.01896 -1.20753,-8.8789 -4.6074,-11.58015 -3.39969,-2.70118 -7.25745,-3.55361 -13.00194,-2.22756 -4.76223,1.09934 -8.15972,3.0693 -11.62098,6.23995 -3.14634,-1.64534 -6.38639,-2.08315 -11.14869,-0.98388 z m -240.99223,69.90272 c 2.0537,-0.47405 3.76311,-0.16849 5.12867,0.91625 1.36548,1.08486 1.98284,2.62819 1.85188,4.62998 -0.13212,2.00207 -0.97159,3.88171 -2.52358,5.64006 -1.55145,1.75817 -3.3538,2.87427 -5.40758,3.3484 -2.0537,0.47404 -3.76327,0.16849 -5.12885,-0.91625 -1.36548,-1.08488 -1.98274,-2.62821 -1.85187,-4.63001 0.1329,-2.00204 0.97161,-3.88178 2.52349,-5.63995 1.55154,-1.75835 3.35407,-2.87445 5.40784,-3.34848 z m 46.34267,-10.69771 c 2.05377,-0.47403 3.76328,-0.16849 5.12876,0.91627 1.36549,1.08486 1.98292,2.62819 1.85188,4.62998 -0.13212,2.00205 -0.97161,3.88171 -2.52358,5.63996 -1.55129,1.75827 -3.3539,2.87437 -5.40758,3.3485 -2.05377,0.47403 -3.76336,0.16849 -5.12894,-0.91625 -1.36556,-1.08496 -1.98282,-2.62829 -1.85188,-4.63 0.13114,-2.00205 0.97161,-3.88179 2.52358,-5.64004 1.55145,-1.75827 3.354,-2.87437 5.40776,-3.34842 z m 83.63578,-19.30638 c 2.0536,-0.47405 3.76319,-0.1685 5.12867,0.91624 1.36541,1.08488 1.98274,2.62829 1.85188,4.63009 -0.13212,2.00204 -0.97161,3.8817 -2.52348,5.63995 -1.55147,1.75817 -3.35408,2.87437 -5.40768,3.3484 -2.0536,0.47405 -3.76329,0.1685 -5.12892,-0.91625 -1.36541,-1.08485 -1.98269,-2.62819 -1.8518,-4.63 0.13212,-2.00205 0.97161,-3.88177 2.52358,-5.63996 1.55145,-1.75833 3.35406,-2.87445 5.40775,-3.34847 z" />
      <rect
         style="fill:#fff6f9;fill-opacity:1;stroke:none;stroke-width:1.02368;stroke-linecap:round;stroke-linejoin:round;stroke-dasharray:none;stroke-dashoffset:331.72;stroke-opacity:1;paint-order:fill markers stroke"
         id="rect7-4"
         width="39.892731"
         height="10.257577"
         x="-118.12343"
         y="430.73038"
         ry="0.015264249"
         transform="matrix(0.8527867,-0.52225936,0.52518291,0.85098937,0,0)" />
      <path
         id="path8-8"
         style="baseline-shift:baseline;display:inline;overflow:visible;vector-effect:none;fill:#f3abb9;fill-opacity:1;stroke-width:8.46498;stroke-linecap:round;stroke-linejoin:round;stroke-miterlimit:7;stroke-dasharray:25.7647, 51.5293;stroke-dashoffset:208.694;paint-order:fill markers stroke;enable-background:accumulate;stop-color:#000000"
         d="m 157.46262,404.74452 c -0.353,0.0676 -0.70937,0.15415 -1.06734,0.25058 -0.81688,0.22263 -1.64357,0.52397 -2.47738,0.90194 l -1.57176,0.70174 c -0.10322,0.0507 -0.20147,0.0948 -0.3039,0.14313 l -1.92942,0.92549 c -0.10322,0.0507 -0.20654,0.0957 -0.30727,0.14392 l -1.92342,0.97119 c -0.0958,0.0423 -0.19808,0.10165 -0.29543,0.14982 l -1.92189,1.01369 c -0.10066,0.0592 -0.20062,0.11089 -0.30134,0.16417 l -1.89667,1.02925 c -0.10243,0.0592 -0.21076,0.1219 -0.31573,0.1803 l -1.87313,1.0753 c -0.10244,0.0592 -0.21502,0.12269 -0.31999,0.18108 l -1.87185,1.12219 c -0.10243,0.0592 -0.20231,0.11758 -0.30221,0.18541 l -1.86601,1.1679 c -0.0958,0.0592 -0.18541,0.12367 -0.28019,0.18875 l -1.85027,1.19425 c -0.0991,0.0676 -0.20487,0.14058 -0.3039,0.21162 l -1.83131,1.2413 c -0.0956,0.0592 -0.19386,0.12956 -0.29036,0.19563 l -1.82521,1.28286 c -0.0991,0.0676 -0.20062,0.13959 -0.29966,0.21079 l -1.79676,1.31908 c -0.0932,0.0676 -0.19209,0.14726 -0.28613,0.2201 l -1.78094,1.34541 c -0.0932,0.0676 -0.18796,0.14648 -0.28103,0.21924 l -0.96603,0.78471 c -6.3732,5.04022 -8.88915,13.2415 -5.69973,18.43832 -7.07909,7.3646 -13.32767,15.53026 -18.35577,24.0985 -0.0507,-0.008 -0.10067,-0.0177 -0.15238,-0.0254 -6.59031,-1.02562 -14.435983,3.98463 -17.520117,11.18476 l -0.647557,1.49526 c -0.05073,0.11089 -0.07609,0.21586 -0.132122,0.3259 l -0.821951,2.0156 c -0.04227,0.1101 -0.06763,0.21501 -0.115018,0.32252 l -0.760156,2.00128 c -0.05072,0.11089 -0.07609,0.22008 -0.132122,0.33013 l -0.711888,2.00721 c -0.04227,0.11011 -0.06763,0.21502 -0.106563,0.31997 l -0.664505,2.00901 c -0.04227,0.1101 -0.06763,0.21076 -0.106563,0.31573 l -0.612855,1.99324 c -0.04227,0.11011 -0.05918,0.21671 -0.09732,0.32675 l -0.555287,1.99283 c -0.04227,0.1101 -0.05918,0.2167 -0.09732,0.32759 l -0.516359,1.97073 c -0.03382,0.11167 -0.05918,0.22433 -0.08454,0.33606 l -0.463038,1.97565 c -0.02536,0.10577 -0.05073,0.21247 -0.08808,0.31912 l -0.429162,1.97615 c -0.02536,0.1101 -0.03382,0.21332 -0.05918,0.32337 l -0.374996,1.97664 c -0.01769,0.10322 -0.02536,0.20401 -0.04227,0.30813 l -0.330975,1.95787 c -0.0177,0.10755 -0.03382,0.21332 -0.05918,0.32337 l -0.270045,1.94837 c -0.0177,0.10322 -0.02536,0.204 -0.04227,0.30813 l -0.108332,0.90439 c -0.864537,7.1628 4.295708,11.92579 11.524121,10.63919 0.26918,-0.0507 0.540916,-0.10164 0.805869,-0.16417 0.407161,8.29314 2.242207,16.08675 5.352058,23.05324 -0.309819,0.2345 -0.616256,0.48081 -0.918781,0.739 -6.267223,5.34801 -8.367203,13.66991 -4.694514,18.59627 l 0.80925,1.06888 c 0.05072,0.0761 0.107546,0.14824 0.160827,0.22431 l 1.048801,1.30945 c 0.05918,0.0761 0.124454,0.1447 0.188746,0.21332 l 1.098346,1.28939 c 0.06763,0.0592 0.117573,0.13212 0.180292,0.19386 l 1.140401,1.254 c 0.05918,0.0761 0.125241,0.14058 0.188747,0.2091 l 1.18688,1.21318 c 0.05918,0.0676 0.126027,0.13547 0.193858,0.19978 l 1.246807,1.17375 c 0.05918,0.0676 0.130353,0.13468 0.198085,0.19893 l 1.276181,1.12831 c 0.05918,0.0676 0.141363,0.11934 0.207385,0.18363 l 1.321381,1.10944 c 0.07609,0.0592 0.145689,0.11265 0.21755,0.16849 l 1.372598,1.06752 c 0.07609,0.0592 0.144706,0.10755 0.219241,0.16417 l 1.410352,1.02882 c 0.0863,0.0507 0.15316,0.10499 0.23194,0.15238 l 1.45682,0.98803 c 0.0863,0.0507 0.15415,0.10066 0.23195,0.14824 l 1.50338,0.94731 c 0.0863,0.0507 0.16004,0.0855 0.23701,0.1337 l 1.55002,0.90659 c 0.0863,0.0507 0.1567,0.0863 0.23279,0.13468 l 0.20316,0.116 c 5.49216,2.96825 13.81711,-0.0177 18.59212,-6.66625 0.0592,-0.0761 0.11423,-0.15414 0.1685,-0.23194 7.4678,2.52112 15.75331,3.505 24.40053,3.08514 -0.006,0.0847 -0.0254,0.16594 -0.0177,0.24887 -0.5206,7.0988 4.94388,11.53894 12.20945,9.91097 l 1.73195,-0.39533 c 0.10066,-0.0177 0.19641,-0.0423 0.29881,-0.0592 l 1.97123,-0.48926 c 0.10578,-0.0254 0.21246,-0.0507 0.31743,-0.0761 l 1.96566,-0.53923 c 0.10577,-0.0254 0.20823,-0.0507 0.3132,-0.0761 l 1.97242,-0.57561 c 0.10322,-0.0338 0.20994,-0.0676 0.31406,-0.0981 l 1.96633,-0.6171 c 0.10322,-0.0338 0.20569,-0.0592 0.31066,-0.0932 l 1.96497,-0.66364 c 0.10322,-0.0338 0.19808,-0.0676 0.29627,-0.11167 l 1.96878,-0.72036 c 0.10421,-0.0338 0.20572,-0.0676 0.30982,-0.0973 l 1.95296,-0.74661 c 0.10833,-0.0423 0.21078,-0.0932 0.31744,-0.14215 l 1.94702,-0.79232 c 0.10322,-0.0338 0.20825,-0.0847 0.31151,-0.12367 l 1.94086,-0.8338 c 0.10322,-0.0507 0.20147,-0.0991 0.30388,-0.14726 l 1.92528,-0.86446 c 0.10833,-0.0423 0.2167,-0.0897 0.32167,-0.13881 l 1.92916,-0.92539 c 0.10322,-0.0507 0.20739,-0.0999 0.30813,-0.14804 l 1.91063,-0.97256 c 0.10754,-0.0592 0.21247,-0.10578 0.31913,-0.15906 l 1.01961,-0.53075 c 6.71933,-3.53081 10.96551,-11.00768 9.88285,-17.11083 9.79379,-6.46242 18.84031,-14.51573 26.39667,-23.94029 8.45522,-8.9452 13.12213,-21.99691 7.67991,-30.02612 -6.28201,-10.60278 -26.09387,-8.19434 -35.48439,5.63243 -11.81066,17.08028 -33.89018,26.26487 -49.52135,21.78215 -18.47972,-4.01137 -25.59384,-26.07973 -15.39653,-46.4334 9.14337,-20.79125 34.33369,-35.97953 52.96094,-32.15107 6.20584,0.64587 10.81628,3.82794 14.98748,7.43529 l 3.31844,-50.77983 c -8.68251,-1.33298 -18.07526,-1.01394 -27.619,0.94511 -2.40905,0.49435 -4.82622,1.09748 -7.24577,1.80109 -1.0224,0.25225 -2.04446,0.52483 -3.06575,0.81941 -1.47993,-4.57938 -6.02901,-6.81751 -11.31292,-5.79766 z m 60.62586,-8.96305 c -2.47041,0.57055 -4.63981,1.91403 -6.50777,4.03103 -1.83631,2.08111 -2.83332,4.3257 -2.99069,6.73363 l -5.44618,83.26958 c -0.15316,2.40718 0.57053,4.26855 2.18539,5.58164 1.64603,1.27736 3.70444,1.63077 6.1747,1.0605 2.47049,-0.57055 4.62373,-1.896 6.46012,-3.9771 1.86805,-2.11701 2.88072,-4.37953 3.03824,-6.78748 l 1.80035,-27.53325 37.87474,44.28763 c 1.33306,1.57837 3.20982,2.245 5.62945,2.00079 2.41784,-0.21501 4.67029,-1.26383 6.75759,-3.14575 2.05926,-1.90404 3.33037,-4.08335 3.81338,-6.53784 0.51298,-2.46129 0.0881,-4.47773 -1.27541,-6.04883 l -37.62097,-44.13195 33.82933,-47.42457 c 1.61369,-2.25829 2.31899,-4.53562 2.11785,-6.83209 -0.17105,-2.30339 -1.19254,-3.95364 -3.06203,-4.95073 -1.90132,-0.96112 -4.08376,-0.98567 -6.54716,-0.0761 -2.4616,0.88256 -4.48406,2.44951 -6.06776,4.70094 l -34.11698,47.79102 2.30918,-35.37053 c 0.15414,-2.40718 -0.58578,-4.25061 -2.23291,-5.52781 -1.61435,-1.31316 -3.65668,-1.6847 -6.12702,-1.11441 z m -62.4614,17.3973 a 2.913426,3.935201 45.035473 0 1 3.30937,2.04336 2.913426,3.935201 45.035473 0 1 -3.13576,4.51276 2.913426,3.935201 45.035473 0 1 -3.7625,-1.90453 2.913426,3.935201 45.035473 0 1 3.13541,-4.50836 2.913426,3.935201 45.035473 0 1 0.45289,-0.14392 z m -9.5947,3.6292 a 2.913426,3.9352012 45.035473 0 1 3.14701,2.23949 2.913426,3.9352012 45.035473 0 1 -3.31352,4.40796 c -3.66203,1.21346 -9.01419,5.84167 -10.4782,8.73636 a 2.913426,3.9352012 45.035473 0 1 -4.72312,2.62888 2.913426,3.9352012 45.035473 0 1 -1.29031,-4.13811 c 3.15835,-6.24461 9.6874,-11.59319 16.20601,-13.75304 a 2.913426,3.9352012 45.035473 0 1 0.45203,-0.1219 z m 132.03779,-10.72952 c -0.70343,9.96199 -6.50905,16.53665 -17.41041,19.72709 10.8118,-1.82157 15.92093,2.23747 15.32406,12.17508 0.70343,-9.96199 6.50946,-16.54096 17.41066,-19.7315 -10.81172,1.82174 -15.92108,-2.23306 -15.32431,-12.17067 z m 254.44469,-58.15284 c -2.35353,0.54346 -4.38631,2.93125 -4.54358,5.33057 -0.39192,5.99828 7.35723,2.88206 7.02075,10.04148 0.48504,-7.19919 7.52231,-7.37646 7.9664,-13.49249 l 5.1e-4,-0.008 c 0.15414,-2.3984 -1.62155,-3.90296 -3.97533,-3.35976 -1.24274,0.28697 -2.45874,1.11171 -3.3313,2.26049 -0.74745,-0.7737 -1.89489,-1.05405 -3.13789,-0.76692 z m -22.82393,21.21255 c -0.32762,0.0676 -0.66789,0.22939 -0.99845,0.4791 l -25.76322,21.0424 c -1.52321,1.16691 -3.29347,0.55954 -3.18683,-1.09443 l 0.75086,-11.4884 c 0.10165,-1.59498 -1.60014,-2.18566 -3.07026,-1.06142 l -24.97622,20.44069 c -2.40076,1.83835 -3.9843,4.57608 -4.1546,7.18237 l -2.02077,30.85346 c -0.3039,4.66683 3.3296,7.55406 8.11764,6.44956 l 75.46998,-17.42135 c 4.77119,-1.10163 8.88541,-5.76431 9.18972,-10.41478 l 2.29174,-35.09638 0.87045,-13.36839 c 0.15493,-2.32751 -1.47393,-3.63824 -3.86122,-3.08608 l -6.42009,1.48198 c -2.38736,0.55021 -4.44623,2.88341 -4.59732,5.2101 l -0.13213,2.00645 c -0.0863,1.33535 -0.90034,2.73893 -2.13147,3.68083 l -11.26198,8.61718 c -1.50482,1.15021 -3.25157,0.55021 -3.14804,-1.08201 l 0.77709,-11.90175 c 0.0676,-1.07377 -0.77455,-1.63958 -1.75776,-1.42864 z m -86.72728,20.05402 c -2.0537,0.47403 -3.8563,1.59031 -5.40776,3.34848 -1.54953,1.72923 -2.38974,3.59465 -2.52045,5.59644 -0.13212,2.00207 0.48673,3.54505 1.8518,4.63001 1.3653,1.08488 3.07507,1.39029 5.12875,0.91625 2.02389,-0.46727 3.81143,-1.57981 5.36299,-3.33808 1.55129,-1.75825 2.39261,-3.63824 2.52357,-5.64004 0.13213,-2.00204 -0.48757,-3.53065 -1.85476,-4.58649 -1.36556,-1.08478 -3.06017,-1.39375 -5.08414,-0.92649 z m 17.42988,-4.02348 c -2.05378,0.47403 -3.85639,1.59031 -5.40776,3.34848 -1.54951,1.72923 -2.38957,3.59465 -2.52061,5.59644 -0.13212,2.00205 0.48673,3.54505 1.8517,4.63001 1.36558,1.08488 3.07525,1.39029 5.12877,0.91617 2.02414,-0.46727 3.81185,-1.57991 5.36314,-3.33816 1.55146,-1.75819 2.39254,-3.63816 2.5235,-5.63997 0.13213,-2.00205 -0.48759,-3.53064 -1.85459,-4.58648 -1.36558,-1.0848 -3.06018,-1.39375 -5.08415,-0.92659 z m -181.05777,46.62972 c -0.46388,6.60563 -4.31706,10.96881 -11.54529,13.08438 7.16907,-1.20796 10.55768,1.47985 10.16194,8.06924 0.46388,-6.60565 4.3123,-10.96351 11.54072,-13.07906 -7.16924,1.20794 -10.5532,-1.48517 -10.15737,-8.07456 z m 28.25175,5.78782 c -6.16114,1.42221 -11.56797,4.75623 -16.22015,10.00179 -4.62264,5.23881 -7.13141,10.87538 -7.52587,16.90972 -0.39192,6.00522 1.44413,10.63876 5.51086,13.90024 4.09823,3.22566 9.22808,4.12735 15.38916,2.70515 3.5419,-0.81771 6.81692,-2.25947 9.82487,-4.32526 1.36743,1.05584 3.06322,1.35024 5.08701,0.88308 2.05362,-0.47405 3.84142,-1.58685 5.36307,-3.33818 1.5513,-1.75817 2.39253,-3.63816 2.52342,-5.63995 l 1.89285,-28.98229 c 0.13546,-2.03125 -0.48589,-3.57399 -1.8518,-4.62999 -1.33577,-1.09174 -3.03046,-1.40062 -5.08398,-0.92659 -2.02407,0.46727 -3.80992,1.55097 -5.35749,3.25116 -2.82771,-0.68991 -6.01257,-0.62642 -9.55457,0.1913 z m 52.40122,-12.09626 c -3.006,0.69412 -5.34545,2.61965 -7.01763,5.77733 l -4.72388,11.71975 -3.1708,-9.34015 c -0.59001,-1.72093 -1.79654,-2.78548 -3.61658,-3.19392 -1.79044,-0.41479 -3.67584,-0.0507 -5.65596,1.09121 -1.97834,1.11392 -3.45878,2.68432 -4.44157,4.71126 -0.98099,1.998 -1.17129,3.8564 -0.58408,5.57801 l 9.09528,27.0024 c 0.79739,2.58732 2.96815,3.47226 6.50997,2.65462 3.51222,-0.81094 5.85141,-2.73655 7.01773,-5.77735 l 4.72396,-11.71975 3.31235,9.86467 -0.004,10e-4 c 0.82787,2.58048 2.99812,3.4654 6.51024,2.65462 3.51219,-0.81094 5.86613,-2.74003 7.06231,-5.78767 l 12.95997,-32.09358 c 0.80756,-2.04371 0.83973,-3.86544 0.094,-5.46473 -0.74322,-1.62849 -2.06097,-2.55303 -3.95195,-2.77373 -1.88906,-0.24971 -3.79435,0.26157 -5.72454,1.53573 -1.90038,1.26737 -3.25459,2.92287 -4.06241,4.96664 l -4.51277,11.11383 -3.30803,-9.86567 c -1.30428,-2.47059 -3.47419,-3.35543 -6.51023,-2.65461 z m 49.72704,-11.47894 c -6.16113,1.4223 -11.56796,4.75623 -16.2203,10.00189 -4.62266,5.23879 -7.13125,10.87528 -7.52579,16.90962 -0.39193,6.00522 1.44403,10.63886 5.51068,13.90032 4.09841,3.22558 9.22826,4.12735 15.38941,2.70507 3.54191,-0.81771 6.81685,-2.25937 9.82478,-4.32518 1.36745,1.05584 3.06306,1.35026 5.08695,0.883 2.0536,-0.47405 3.84148,-1.58685 5.36322,-3.33818 1.55122,-1.75817 2.39246,-3.63806 2.52325,-5.63995 l 1.89285,-28.98227 c 0.13468,-2.03119 -0.48504,-3.57401 -1.85206,-4.62993 -1.33559,-1.09182 -3.03036,-1.40062 -5.08405,-0.92657 -2.02397,0.46727 -3.80965,1.55087 -5.35723,3.25114 -2.8278,-0.68989 -6.01258,-0.62641 -9.5545,0.1913 z m 32.1095,-7.41208 c -2.05367,0.47402 -3.8563,1.59014 -5.40775,3.34847 -1.54951,1.72923 -2.39067,3.60923 -2.5235,5.63996 l -1.89285,28.98229 c -0.13114,2.00215 0.48675,3.54505 1.85205,4.63 1.36548,1.08479 3.07507,1.3902 5.12877,0.91625 2.05368,-0.47403 3.84122,-1.58684 5.36297,-3.33816 1.5513,-1.75817 2.39263,-3.63816 2.5235,-5.63995 l 1.89277,-28.98229 c 0.13546,-2.03125 -0.48506,-3.57399 -1.85198,-4.63001 -1.33569,-1.09172 -3.03012,-1.40061 -5.08398,-0.92649 z m 17.4298,-4.02349 c -2.0536,0.47403 -3.8562,1.59013 -5.40768,3.34848 -1.54959,1.72923 -2.39075,3.60922 -2.52348,5.63996 l -1.89277,28.98229 c -0.13212,2.00212 0.48673,3.54505 1.85188,4.62991 1.36548,1.08487 3.07507,1.39037 5.12877,0.91634 2.05375,-0.47405 3.84147,-1.58692 5.36314,-3.33816 1.55138,-1.75827 2.39254,-3.63816 2.52332,-5.64005 l 1.89285,-28.98219 c 0.13468,-2.03127 -0.48503,-3.57409 -1.85179,-4.63001 -1.3356,-1.09182 -3.03038,-1.40061 -5.08414,-0.92657 z m -152.61531,49.50189 c 2.05378,-0.47405 3.76345,-0.1685 5.12903,0.91615 1.3653,1.08495 1.98248,2.62829 1.8518,4.63 -0.13213,2.00205 -0.97162,3.88179 -2.52358,5.64004 -1.5513,1.75819 -3.354,2.87437 -5.40776,3.34841 -2.05378,0.47403 -3.76337,0.1685 -5.12885,-0.91624 -1.36548,-1.08488 -1.98258,-2.62821 -1.8518,-4.63001 0.13213,-2.00204 0.97162,-3.8817 2.52358,-5.63995 1.5513,-1.75827 3.35383,-2.87437 5.40758,-3.3485 z m 102.12829,-23.57512 c 2.05376,-0.47405 3.76309,-0.1685 5.12867,0.91624 1.3654,1.08488 1.98274,2.62822 1.85188,4.63001 -0.13213,2.00205 -0.97162,3.88168 -2.5234,5.63995 -1.55148,1.75825 -3.35401,2.87437 -5.40778,3.34848 -2.05368,0.47405 -3.76335,0.1685 -5.12875,-0.91624 -1.36533,-1.08496 -1.98284,-2.6283 -1.8518,-4.63001 0.13212,-2.00205 0.97153,-3.88176 2.5235,-5.64003 1.55138,-1.75818 3.3539,-2.87437 5.40768,-3.3484 z m 82.28729,-18.99516 a 6.2856829,8.4901511 45.035473 0 1 6.98065,5.54618 6.2856829,8.4901511 45.035473 0 1 -7.93118,8.98853 6.2856829,8.4901511 45.035473 0 1 -6.98072,-5.54625 6.2856829,8.4901511 45.035473 0 1 7.93125,-8.98846 z m 22.85891,-5.27671 a 6.2856829,8.4901511 45.035473 0 1 6.98063,5.54625 6.2856829,8.4901511 45.035473 0 1 -7.93116,8.98845 6.2856829,8.4901511 45.035473 0 1 -6.98065,-5.54625 6.2856829,8.4901511 45.035473 0 1 7.93118,-8.98845 z m 22.85889,-5.27664 a 6.2856829,8.4901511 45.035473 0 1 6.98062,5.54617 6.2856829,8.4901511 45.035473 0 1 -7.93123,8.98843 6.2856829,8.4901511 45.035473 0 1 -6.98065,-5.54625 6.2856829,8.4901511 45.035473 0 1 7.93126,-8.98835 z m -182.39932,73.32823 c -2.0536,0.47405 -3.8563,1.59015 -5.40784,3.3485 -1.54943,1.72913 -2.38966,3.59465 -2.52053,5.59645 -0.13113,2.00204 0.48673,3.54504 1.8518,4.63 1.36556,1.08486 3.07515,1.39027 5.12893,0.91615 2.02389,-0.46727 3.81151,-1.57991 5.36299,-3.33816 1.55128,-1.75817 2.39244,-3.63816 2.52348,-5.63995 0.13114,-2.00205 -0.48758,-3.53074 -1.85475,-4.5865 -1.3655,-1.08486 -3.06009,-1.39375 -5.08408,-0.92657 z m 21.12655,-4.87683 c -2.05377,0.47403 -3.8564,1.59023 -5.40778,3.34848 -1.5495,1.72915 -2.39059,3.60912 -2.52332,5.63995 l -0.0948,1.43634 -0.71445,0.16516 c -2.0535,0.47403 -3.85605,1.59015 -5.40758,3.3484 -1.55163,1.75817 -2.39263,3.63816 -2.5235,5.63995 -0.13212,2.00205 0.48673,3.54505 1.8518,4.63001 1.36558,1.08495 3.07515,1.39037 5.12875,0.91632 l 0.7136,-0.16515 -1.99291,30.41827 c -0.13114,2.00205 0.48675,3.54505 1.85172,4.63001 1.36548,1.08496 3.07515,1.39027 5.12875,0.91625 2.0537,-0.47405 3.8564,-1.59023 5.40793,-3.3485 1.55138,-1.75817 2.39254,-3.63817 2.52325,-5.63996 l 1.99298,-30.41827 0.7136,-0.16516 c 2.08348,-0.48081 3.88611,-1.59708 5.40794,-3.34847 1.55129,-1.75835 2.39694,-3.63935 2.5279,-5.64106 0.13212,-2.00215 -0.49098,-3.54413 -1.85638,-4.62891 -1.33577,-1.09181 -3.04544,-1.39713 -5.12885,-0.91624 l -0.71358,0.16515 0.0948,-1.43624 c 0.13448,-2.03134 -0.48506,-3.57417 -1.8518,-4.63 -1.3655,-1.08496 -3.07517,-1.39028 -5.12884,-0.91633 z m 63.30392,-14.61299 c -2.05368,0.47403 -3.8563,1.59022 -5.40791,3.34847 -1.54953,1.72923 -2.39052,3.60923 -2.52325,5.63996 l -3.03809,46.38899 c -0.13212,2.00212 0.48675,3.54512 1.8519,4.63008 1.36548,1.08486 3.07507,1.39027 5.12875,0.91625 2.05368,-0.47405 3.8415,-1.58677 5.36315,-3.33816 1.55155,-1.75827 2.39263,-3.63826 2.5235,-5.63996 l 3.02961,-46.38906 c 0.13546,-2.03126 -0.48419,-3.57409 -1.85188,-4.63001 -1.33561,-1.09172 -3.03038,-1.40061 -5.08408,-0.92648 z m 17.4298,-4.02348 c -2.05368,0.47402 -3.85629,1.59022 -5.40776,3.34847 -1.54943,1.72914 -2.38965,3.59466 -2.52053,5.59645 -0.13114,2.00205 0.48675,3.54505 1.85172,4.63 1.3654,1.08486 3.07525,1.3903 5.12885,0.91625 2.02404,-0.46727 3.81159,-1.57991 5.36306,-3.33816 1.55146,-1.75817 2.39254,-3.63816 2.52348,-5.63995 0.13213,-2.00205 -0.48757,-3.53076 -1.85474,-4.5865 -1.36541,-1.08488 -3.06019,-1.39367 -5.08408,-0.92649 z m -370.11055,93.00487 -0.0039,0.006 c -0.113445,0.84565 -0.7356,39.58356 37.87397,63.39483 1.29303,0.79742 -6.869146,12.51192 -5.813051,13.57833 1.056429,1.06617 11.897601,-5.75068 13.597101,-5.72748 1.69953,0.0254 8.32836,7.06953 10.02186,6.04002 1.69664,-1.0307 1.41051,-11.93638 2.45213,-13.62548 1.04086,-1.68893 12.02043,-8.14602 12.01103,-9.84882 -0.008,-1.70196 -11.02723,-1.62613 -12.08332,-2.69245 -1.05661,-1.066 -0.89814,-12.10314 -2.59731,-12.12557 -1.6996,-0.0254 -8.43637,12.47381 -9.9196,11.95896 -42.176618,-14.64065 -45.490571,-48.98534 -45.532488,-50.90757 -6.69e-4,-0.0254 -1.58e-4,-0.0423 -0.0011,-0.0507 z m 189.45428,-34.15844 c -6.16097,1.42221 -11.5679,4.75621 -16.22032,10.00179 -4.62248,5.23881 -7.13098,10.87536 -7.52561,16.90972 -0.39195,6.00522 1.4441,10.63876 5.51068,13.90024 4.09841,3.22566 9.22818,4.12735 15.38931,2.70515 3.54193,-0.81772 6.81703,-2.25939 9.8248,-4.32526 1.36743,1.05592 3.06304,1.35024 5.08693,0.88306 2.05377,-0.47403 3.84158,-1.58685 5.36317,-3.33816 1.55145,-1.75827 2.39261,-3.63824 2.52347,-5.63995 l 1.89285,-28.98229 c 0.13547,-2.03135 -0.48503,-3.57417 -1.85179,-4.63001 -1.33593,-1.09172 -3.0307,-1.4006 -5.08422,-0.92649 -2.02407,0.46727 -3.80967,1.55087 -5.35731,3.25116 -2.82773,-0.68991 -6.01259,-0.62642 -9.55459,0.1913 z m 31.47563,-7.26582 c -2.05377,0.47404 -3.85638,1.59022 -5.40776,3.34849 -1.54943,1.72913 -2.39066,3.60921 -2.5234,5.63996 l -4.39916,67.26849 c -0.13212,2.00205 0.48673,3.54505 1.8518,4.63001 1.3654,1.08488 3.07507,1.39019 5.12892,0.91624 2.05368,-0.47402 3.84148,-1.58684 5.36307,-3.33815 1.55146,-1.75827 2.39262,-3.63824 2.52348,-5.63996 l 2.10635,-32.19381 c 2.27038,0.24718 4.73006,0.0676 7.37908,-0.54598 6.19103,-1.42915 11.59787,-4.76317 16.2204,-10.00189 4.6245,-5.26775 7.13302,-10.90432 7.52571,-16.90962 0.39361,-6.03426 -1.44226,-10.6678 -5.51086,-13.90032 -4.06845,-3.23252 -9.19838,-4.13421 -15.38924,-2.70507 -3.51211,0.81094 -6.77215,2.24897 -9.78018,4.31494 -1.36735,-1.05584 -3.06304,-1.35027 -5.08693,-0.88308 z m 46.18192,-10.66053 c -2.0536,0.47404 -3.85629,1.59014 -5.40766,3.34839 -1.54943,1.72916 -2.39061,3.60923 -2.52342,5.64006 l -1.89285,28.98219 c -0.13114,2.00205 0.48673,3.54505 1.85179,4.63001 1.36549,1.08486 3.07515,1.39029 5.12885,0.91624 2.05378,-0.47403 3.84132,-1.58676 5.36307,-3.33807 1.55138,-1.75835 2.39254,-3.63825 2.52348,-5.63996 l 1.89285,-28.98229 c 0.13468,-2.03132 -0.48504,-3.57417 -1.8517,-4.62999 -1.33595,-1.09182 -3.03054,-1.40061 -5.08431,-0.92658 z M 385.55626,477.611 c -6.16106,1.42228 -11.56789,4.75621 -16.22015,10.00188 -4.62256,5.23871 -7.13115,10.87529 -7.52587,16.90962 -0.39192,6.00522 1.4442,10.63887 5.51078,13.90032 4.09839,3.22558 9.22809,4.12736 15.38941,2.70507 3.54191,-0.8177 6.81227,-2.25829 9.82038,-4.32415 1.36717,1.05591 3.06736,1.34924 5.09125,0.88195 2.05378,-0.47403 3.84158,-1.58682 5.36315,-3.33807 1.55137,-1.75833 2.38815,-3.63722 2.51909,-5.63902 l 1.89277,-28.98221 c 0.13547,-2.03142 -0.48081,-3.57517 -1.84747,-4.63101 -1.33561,-1.09182 -3.03046,-1.40061 -5.08398,-0.92656 -2.02399,0.46726 -3.81433,1.55196 -5.36197,3.25215 -2.82763,-0.6899 -6.00811,-0.62726 -9.55001,0.19052 z m 49.53939,-11.43557 c -2.05362,0.47403 -3.85622,1.59023 -5.40752,3.3484 -1.54969,1.72921 -2.39084,3.6092 -2.52348,5.64003 l -1.89287,28.98229 c -0.13212,2.00205 0.48675,3.54495 1.8518,4.63001 1.36524,1.08478 3.07499,1.39019 5.12869,0.91624 2.05376,-0.47404 3.8414,-1.58694 5.36305,-3.33817 1.55147,-1.75833 2.39263,-3.63824 2.52367,-5.64004 l 1.89278,-28.98219 c 0.13546,-2.03142 -0.48506,-3.57416 -1.8518,-4.63008 -1.33562,-1.09174 -3.0303,-1.40054 -5.08424,-0.92649 z m 24.45724,-5.64564 c -4.61349,1.0649 -8.47149,3.3556 -11.57432,6.87204 -3.07118,3.48054 -4.73777,7.22265 -4.99949,11.22616 -0.26411,4.03262 0.87155,6.61351 3.40706,7.74265 2.53526,1.12923 5.59729,1.82242 9.18601,2.07976 3.6209,0.22093 5.30509,0.68989 5.05309,1.40518 -0.24971,0.68651 -1.38512,1.23395 -3.40547,1.64331 -1.99045,0.40209 -3.43051,0.23448 -4.32035,-0.50281 -0.86021,-0.74407 -2.22771,-0.90018 -4.10289,-0.46729 -2.0536,0.47405 -3.8563,1.59025 -5.40776,3.34842 -1.54951,1.72931 -2.38974,3.59474 -2.52053,5.59653 -0.13212,2.00205 0.90541,3.63401 3.10962,4.89682 2.20587,1.23376 6.31478,1.15672 12.3272,-0.23109 5.35756,-1.23666 9.57201,-3.59542 12.64311,-7.07596 3.10291,-3.51635 4.78525,-7.27641 5.04698,-11.27992 0.27934,-4.26456 -1.10222,-6.90318 -4.14326,-7.91558 -3.01143,-1.01919 -6.0781,-1.64001 -9.20024,-1.86222 -3.12053,-0.25141 -4.55467,-0.73475 -4.30249,-1.44979 0.2514,-0.71529 1.25323,-1.23226 3.00354,-1.55061 1.75233,-0.34708 2.9431,-0.1795 3.57281,0.50366 0.65941,0.67634 1.92645,0.79824 3.80153,0.36568 2.05385,-0.47403 3.85638,-1.59023 5.40776,-3.3484 1.55137,-1.75818 2.39255,-3.63825 2.52349,-5.63996 0.13114,-2.00222 -1.22293,-3.48943 -4.06132,-4.46291 -2.83847,-0.97338 -6.51997,-0.93791 -11.04408,0.10676 z m 36.06957,-8.32631 c -5.77412,1.33289 -9.87819,4.02331 -13.741,8.40089 -3.86266,4.37765 -5.95815,9.07598 -6.28635,14.09486 l -1.18128,18.10309 c -0.13212,2.00205 0.48673,3.54505 1.8518,4.62993 1.3654,1.08494 3.07489,1.39037 5.12884,0.91632 2.05368,-0.47402 3.84131,-1.58676 5.36297,-3.33815 1.55156,-1.75827 2.39272,-3.63824 2.52358,-5.64006 l 1.13677,-17.40685 c 0.0845,-1.27575 0.52398,-2.40649 1.32104,-3.39081 0.79655,-0.98439 1.30013,-1.50016 2.93709,-1.87804 1.60733,-0.37077 2.04226,-0.0761 2.73283,0.5697 0.69073,0.64079 0.99481,1.59903 0.91176,2.87555 l -1.13676,17.40685 c -0.13114,2.00205 0.48673,3.54505 1.85198,4.62993 1.36548,1.08494 3.05999,1.39375 5.08405,0.92657 2.08331,-0.48082 3.88594,-1.59701 5.40759,-3.3484 1.55155,-1.75827 2.39279,-3.63825 2.52357,-5.64006 l 1.13687,-17.40685 c 0.0761,-1.27559 0.52481,-2.4065 1.32102,-3.39081 0.79657,-0.98439 1.30005,-1.50026 2.93719,-1.87812 1.60708,-0.37077 2.042,-0.0676 2.73291,0.5697 0.69075,0.64079 0.99463,1.59901 0.91084,2.87555 l -1.13684,17.40685 c -0.13213,2.00205 0.47149,3.54843 1.80726,4.64033 1.3654,1.08486 3.07507,1.39029 5.12859,0.91624 2.08356,-0.48081 3.88609,-1.59709 5.40784,-3.34849 1.55145,-1.75818 2.39254,-3.63815 2.5235,-5.63996 l 1.18127,-18.10309 c 0.32846,-5.01896 -1.20752,-8.87892 -4.60739,-11.58018 -3.3997,-2.70107 -7.25743,-3.55358 -13.00195,-2.22756 -4.7622,1.09935 -8.15972,3.06933 -11.62095,6.23998 -3.14634,-1.64534 -6.38641,-2.08315 -11.14871,-0.9838 z m -240.99222,69.90271 c 2.0537,-0.47403 3.76311,-0.1685 5.12869,0.91624 1.36548,1.08488 1.98282,2.6283 1.85187,4.63009 -0.13212,2.00207 -0.97161,3.8817 -2.52357,5.63996 -1.55146,1.75819 -3.35383,2.87437 -5.4076,3.34841 -2.05368,0.47403 -3.76327,0.1685 -5.12883,-0.91624 -1.3655,-1.08488 -1.98276,-2.62822 -1.8519,-4.63001 0.13291,-2.00205 0.97161,-3.88178 2.5235,-5.63995 1.55154,-1.75835 3.35408,-2.87437 5.40784,-3.3485 z m 46.34268,-10.69769 c 2.05376,-0.47403 3.76327,-0.16849 5.12875,0.91625 1.36548,1.08495 1.98292,2.62821 1.85188,4.63 -0.13213,2.00205 -0.97161,3.88169 -2.52358,5.64004 -1.55128,1.75817 -3.3539,2.87437 -5.40758,3.34842 -2.05378,0.47402 -3.76337,0.16849 -5.12893,-0.91627 -1.36558,-1.08486 -1.98284,-2.62819 -1.85187,-4.62999 0.13114,-2.00206 0.97159,-3.8817 2.52357,-5.64005 1.55146,-1.75825 3.35399,-2.87435 5.40776,-3.3484 z m 83.63577,-19.30641 c 2.0536,-0.47402 3.76319,-0.16849 5.12867,0.91635 1.3654,1.08478 1.98276,2.62819 1.8519,4.63 -0.13213,2.00205 -0.97161,3.88169 -2.5235,5.63996 -1.55146,1.75825 -3.35408,2.87435 -5.40768,3.3484 -2.0536,0.47403 -3.76327,0.16849 -5.12893,-0.91625 -1.3654,-1.08488 -1.98266,-2.62821 -1.8518,-4.63 0.13213,-2.00205 0.97162,-3.88179 2.52358,-5.63996 1.55146,-1.75835 3.35408,-2.87437 5.40776,-3.3485 z" />
    </g>
    <rect
       style="fill:none;fill-opacity:0.119241;stroke-width:0.7908;stroke-linecap:round;stroke-linejoin:round;stroke-dashoffset:331.72;paint-order:fill markers stroke"
       id="rect2"
       width="510"
       height="300"
       x="47.779995"
       y="314.7153"
       ry="0.0017427757" />
  </g>
</svg>
